<svg width="12" height="12" viewBox="0 0 12 12" fill="none" xmlns="http://www.w3.org/2000/svg">
<path fillRule="evenodd" clipRule="evenodd" d="M10.1482 1.7988C9.0962 0.746799 7.39518 0.732018 6.32506 1.76558L5.53854 2.54745L5.50061 2.59016C5.36144 2.76807 5.37329 3.02594 5.53667 3.19027C5.71366 3.3683 6.00146 3.36914 6.17949 3.19215L6.96131 2.41488L7.03611 2.34655C7.74772 1.73194 8.82822 1.76447 9.50537 2.44162C10.2067 3.14296 10.2166 4.27697 9.52752 4.99039L8.16942 6.34839L8.09295 6.4206C7.72748 6.74621 7.24471 6.91174 6.7536 6.87657C6.22741 6.83888 5.74353 6.57452 5.42755 6.15208C5.27718 5.95106 4.99232 5.90999 4.7913 6.06036C4.59028 6.21073 4.54921 6.49559 4.69958 6.69661C5.17355 7.33026 5.89938 7.72681 6.68866 7.78334C7.47795 7.83986 8.25287 7.55079 8.81231 6.99115L10.1759 5.62758L10.2557 5.54137C11.2135 4.46274 11.1725 2.82312 10.1482 1.7988ZM7.24573 5.24299C6.77175 4.60934 6.04593 4.21279 5.25665 4.15626L5.13217 4.1502C4.38639 4.13092 3.66299 4.41826 3.133 4.94845L1.76942 6.31202L1.68958 6.39823C0.731823 7.47686 0.772792 9.11648 1.79711 10.1408C2.84911 11.1928 4.55013 11.2076 5.62025 10.174L6.40316 9.39121L6.44097 9.34839C6.57962 9.17008 6.56701 8.91224 6.40316 8.74839C6.22565 8.57088 5.93784 8.57088 5.76033 8.74839L4.98306 9.52566L4.90836 9.59389C4.19758 10.2077 3.11708 10.1751 2.43993 9.49798C1.7386 8.79664 1.72874 7.66263 2.41779 6.94921L3.77588 5.59121L3.85236 5.519C4.21783 5.19339 4.7006 5.02786 5.19171 5.06303C5.7179 5.10072 6.20178 5.36508 6.51776 5.78752C6.66813 5.98854 6.95298 6.02961 7.15401 5.87924C7.35503 5.72887 7.3961 5.44401 7.24573 5.24299Z" fill="#15C0E6"/>
</svg>
